<svg width="48" height="48" viewBox="0 0 48 48" fill="none" xmlns="http://www.w3.org/2000/svg">
<rect width="48" height="48" fill="#323238"/>
<path d="M33.2031 12.9531H13.7969C13.3302 12.9531 12.9531 13.3302 12.9531 13.7969V33.2031C12.9531 33.6698 13.3302 34.0469 13.7969 34.0469H33.2031C33.6698 34.0469 34.0469 33.6698 34.0469 33.2031V13.7969C34.0469 13.3302 33.6698 12.9531 33.2031 12.9531ZM19.2101 30.9276H16.0803V20.8606H19.2101V30.9276ZM17.6465 19.4843C17.2877 19.4843 16.937 19.3779 16.6386 19.1786C16.3403 18.9792 16.1078 18.6959 15.9705 18.3644C15.8332 18.0329 15.7973 17.6682 15.8673 17.3163C15.9373 16.9644 16.11 16.6412 16.3637 16.3875C16.6174 16.1338 16.9407 15.961 17.2926 15.891C17.6445 15.821 18.0092 15.8569 18.3407 15.9942C18.6722 16.1315 18.9555 16.3641 19.1548 16.6624C19.3542 16.9607 19.4605 17.3114 19.4605 17.6702C19.4579 18.6722 18.6458 19.4843 17.6465 19.4843ZM30.9276 30.9276H27.8005V26.0312C27.8005 24.8632 27.7794 23.3629 26.1736 23.3629C24.5468 23.3629 24.2963 24.6338 24.2963 25.9469V30.9276H21.1718V20.8606H24.1724V22.237H24.2146C24.6312 21.446 25.6516 20.6102 27.1756 20.6102C30.3449 20.6102 30.9276 22.6958 30.9276 25.4063V30.9276Z" fill="white"/>
</svg>
